<svg width="300" height="172" viewBox="0 0 300 172" fill="none" xmlns="http://www.w3.org/2000/svg">
<g clip-path="url(#clip0_103_342)">
<path d="M64.9043 152.677C73.5079 152.677 80.4826 145.707 80.4826 137.109C80.4826 128.511 73.5079 121.541 64.9043 121.541C56.3006 121.541 49.3259 128.511 49.3259 137.109C49.3259 145.707 56.3006 152.677 64.9043 152.677Z" fill="#F2F2F2"/>
<path d="M67.4375 150.398C76.0411 150.398 83.0158 143.428 83.0158 134.83C83.0158 126.233 76.0411 119.263 67.4375 119.263C58.8338 119.263 51.8591 126.233 51.8591 134.83C51.8591 143.428 58.8338 150.398 67.4375 150.398Z" fill="#FF4C29"/>
<path d="M272.729 117.605H79.9834V118.13H272.729V117.605Z" fill="#EEEEEE"/>
<path d="M179.807 4.90138H111.394V3.49228H80.3728V4.90138H11.6779C11.0702 4.90138 10.4684 5.021 9.907 5.2534C9.34555 5.4858 8.8354 5.82644 8.40569 6.25587C7.97598 6.6853 7.63511 7.1951 7.40255 7.75617C7.16999 8.31724 7.05029 8.91859 7.05029 9.52589V103.141C7.05029 104.368 7.53784 105.544 8.40569 106.411C9.27353 107.279 10.4506 107.766 11.6779 107.766H179.807C181.034 107.766 182.211 107.279 183.079 106.411C183.947 105.544 184.434 104.368 184.434 103.141V9.52589C184.434 8.91859 184.315 8.31724 184.082 7.75617C183.85 7.1951 183.509 6.6853 183.079 6.25587C182.649 5.82644 182.139 5.4858 181.578 5.2534C181.016 5.021 180.414 4.90138 179.807 4.90138V4.90138Z" fill="#EEEEEE"/>
<path d="M178.23 13.0742H13.2544V106.075H178.23V13.0742Z" fill="#FF4C29"/>
<path d="M95.6012 10.5378C96.5357 10.5378 97.2933 9.78074 97.2933 8.84687C97.2933 7.913 96.5357 7.15594 95.6012 7.15594C94.6667 7.15594 93.9092 7.913 93.9092 8.84687C93.9092 9.78074 94.6667 10.5378 95.6012 10.5378Z" fill="#FF4C29"/>
<path opacity="0.1" d="M131.05 106.075H13.2544V13.0743L131.05 106.075Z" fill="#838383"/>
<path d="M39.0684 99.1157C47.8265 99.1157 54.9264 92.0206 54.9264 83.2684C54.9264 74.5161 47.8265 67.421 39.0684 67.421C30.3103 67.421 23.2104 74.5161 23.2104 83.2684C23.2104 92.0206 30.3103 99.1157 39.0684 99.1157Z" fill="#F2F2F2"/>
<path d="M149.505 63.2303H134.094V66.4482H149.505V63.2303Z" fill="#EEEEEE"/>
<path d="M168.136 38.1762H115.464V39.5553H168.136V38.1762Z" fill="#EEEEEE"/>
<path d="M168.136 42.5434H115.464V43.9225H168.136V42.5434Z" fill="#EEEEEE"/>
<path d="M168.136 46.9107H115.464V48.2898H168.136V46.9107Z" fill="#EEEEEE"/>
<path d="M168.136 51.2779H115.464V52.657H168.136V51.2779Z" fill="#EEEEEE"/>
<path d="M168.136 55.6451H115.464V57.0242H168.136V55.6451Z" fill="#EEEEEE"/>
<path d="M168.136 14.961H161.695V21.3969H168.136V14.961Z" fill="#F2F2F2"/>
<path d="M171.126 24.385H163.305V16.57H171.126V24.385ZM163.645 24.0452H170.786V16.9098H163.645V24.0452Z" fill="#EEEEEE"/>
<path d="M189.066 104.384H172.966V103.225C172.966 103.195 172.96 103.165 172.948 103.137C172.937 103.109 172.92 103.084 172.899 103.062C172.877 103.041 172.852 103.024 172.824 103.012C172.796 103.001 172.766 102.995 172.736 102.995H167.216C167.185 102.995 167.156 103.001 167.128 103.012C167.1 103.024 167.074 103.041 167.053 103.062C167.032 103.084 167.015 103.109 167.003 103.137C166.992 103.165 166.986 103.195 166.986 103.225V104.384H163.536V103.225C163.536 103.195 163.53 103.165 163.518 103.137C163.507 103.109 163.49 103.084 163.468 103.062C163.447 103.041 163.422 103.024 163.394 103.012C163.366 103.001 163.336 102.995 163.306 102.995H157.785C157.755 102.995 157.725 103.001 157.697 103.012C157.669 103.024 157.644 103.041 157.623 103.062C157.601 103.084 157.584 103.109 157.573 103.137C157.561 103.165 157.555 103.195 157.555 103.225V104.384H154.105V103.225C154.105 103.195 154.099 103.165 154.088 103.137C154.076 103.109 154.059 103.084 154.038 103.062C154.017 103.041 153.991 103.024 153.963 103.012C153.935 103.001 153.905 102.995 153.875 102.995H148.355C148.325 102.995 148.295 103.001 148.267 103.012C148.239 103.024 148.214 103.041 148.192 103.062C148.171 103.084 148.154 103.109 148.143 103.137C148.131 103.165 148.125 103.195 148.125 103.225V104.384H144.675V103.225C144.675 103.195 144.669 103.165 144.657 103.137C144.646 103.109 144.629 103.084 144.608 103.062C144.586 103.041 144.561 103.024 144.533 103.012C144.505 103.001 144.475 102.995 144.445 102.995H138.925C138.895 102.995 138.865 103.001 138.837 103.012C138.809 103.024 138.783 103.041 138.762 103.062C138.741 103.084 138.724 103.109 138.712 103.137C138.701 103.165 138.695 103.195 138.695 103.225V104.384H135.245V103.225C135.245 103.195 135.239 103.165 135.227 103.137C135.216 103.109 135.199 103.084 135.177 103.062C135.156 103.041 135.131 103.024 135.103 103.012C135.075 103.001 135.045 102.995 135.015 102.995H129.494C129.464 102.995 129.434 103.001 129.406 103.012C129.378 103.024 129.353 103.041 129.332 103.062C129.31 103.084 129.293 103.109 129.282 103.137C129.27 103.165 129.264 103.195 129.264 103.225V104.384H125.814V103.225C125.814 103.195 125.808 103.165 125.797 103.137C125.785 103.109 125.768 103.084 125.747 103.062C125.726 103.041 125.7 103.024 125.672 103.012C125.644 103.001 125.614 102.995 125.584 102.995H120.064C120.034 102.995 120.004 103.001 119.976 103.012C119.948 103.024 119.923 103.041 119.901 103.062C119.88 103.084 119.863 103.109 119.852 103.137C119.84 103.165 119.834 103.195 119.834 103.225V104.384H116.384V103.225C116.384 103.195 116.378 103.165 116.366 103.137C116.355 103.109 116.338 103.084 116.317 103.062C116.295 103.041 116.27 103.024 116.242 103.012C116.214 103.001 116.184 102.995 116.154 102.995H72.9125C72.8823 102.995 72.8524 103.001 72.8245 103.012C72.7966 103.024 72.7712 103.041 72.7498 103.062C72.7285 103.084 72.7115 103.109 72.7 103.137C72.6884 103.165 72.6825 103.195 72.6825 103.225V104.384H69.2324V103.225C69.2324 103.195 69.2264 103.165 69.2149 103.137C69.2033 103.109 69.1864 103.084 69.165 103.062C69.1436 103.041 69.1183 103.024 69.0904 103.012C69.0625 103.001 69.0326 102.995 69.0024 102.995H63.4822C63.452 102.995 63.4221 103.001 63.3941 103.012C63.3662 103.024 63.3409 103.041 63.3195 103.062C63.2982 103.084 63.2812 103.109 63.2697 103.137C63.2581 103.165 63.2522 103.195 63.2522 103.225V104.384H59.802V103.225C59.802 103.195 59.7961 103.165 59.7845 103.137C59.773 103.109 59.756 103.084 59.7347 103.062C59.7133 103.041 59.688 103.024 59.6601 103.012C59.6321 103.001 59.6022 102.995 59.572 102.995H54.0518C54.0216 102.995 53.9917 103.001 53.9638 103.012C53.9359 103.024 53.9106 103.041 53.8892 103.062C53.8678 103.084 53.8509 103.109 53.8393 103.137C53.8278 103.165 53.8218 103.195 53.8218 103.225V104.384H50.3717V103.225C50.3717 103.195 50.3658 103.165 50.3542 103.137C50.3427 103.109 50.3257 103.084 50.3044 103.062C50.283 103.041 50.2576 103.024 50.2297 103.012C50.2018 103.001 50.1719 102.995 50.1417 102.995H44.6215C44.5913 102.995 44.5614 103.001 44.5335 103.012C44.5056 103.024 44.4802 103.041 44.4589 103.062C44.4375 103.084 44.4206 103.109 44.409 103.137C44.3975 103.165 44.3915 103.195 44.3915 103.225V104.384H40.9414V103.225C40.9414 103.195 40.9355 103.165 40.9239 103.137C40.9123 103.109 40.8954 103.084 40.874 103.062C40.8527 103.041 40.8273 103.024 40.7994 103.012C40.7715 103.001 40.7416 102.995 40.7114 102.995H35.1912C35.161 102.995 35.1311 103.001 35.1032 103.012C35.0753 103.024 35.0499 103.041 35.0286 103.062C35.0072 103.084 34.9903 103.109 34.9787 103.137C34.9671 103.165 34.9612 103.195 34.9612 103.225V104.384H31.5111V103.225C31.5111 103.195 31.5051 103.165 31.4936 103.137C31.482 103.109 31.4651 103.084 31.4437 103.062C31.4224 103.041 31.397 103.024 31.3691 103.012C31.3412 103.001 31.3113 102.995 31.2811 102.995H25.7609C25.7307 102.995 25.7008 103.001 25.6729 103.012C25.645 103.024 25.6196 103.041 25.5982 103.062C25.5769 103.084 25.5599 103.109 25.5484 103.137C25.5368 103.165 25.5309 103.195 25.5309 103.225V104.384H22.0808V103.225C22.0808 103.195 22.0748 103.165 22.0632 103.137C22.0517 103.109 22.0347 103.084 22.0134 103.062C21.992 103.041 21.9667 103.024 21.9388 103.012C21.9109 103.001 21.881 102.995 21.8507 102.995H16.3306C16.3004 102.995 16.2704 103.001 16.2425 103.012C16.2146 103.024 16.1893 103.041 16.1679 103.062C16.1466 103.084 16.1296 103.109 16.1181 103.137C16.1065 103.165 16.1006 103.195 16.1006 103.225V104.384H5.52019C4.05614 104.384 2.65206 104.965 1.61683 106C0.581592 107.034 1.3948e-06 108.437 0 109.901V112.395C4.18439e-06 113.858 0.581596 115.261 1.61683 116.296C2.65207 117.33 4.05615 117.911 5.52019 117.911H189.066C190.53 117.911 191.935 117.33 192.97 116.296C194.005 115.261 194.587 113.858 194.587 112.395V109.901C194.587 108.437 194.005 107.034 192.97 106C191.935 104.965 190.53 104.384 189.066 104.384Z" fill="#EEEEEE"/>
<path d="M42.9067 93.1664C38.9541 93.1664 35.0903 91.9951 31.8039 89.8007C28.5174 87.6062 25.9559 84.4871 24.4434 80.8379C22.9308 77.1886 22.535 73.1731 23.3061 69.299C24.0772 65.425 25.9806 61.8665 28.7755 59.0735C31.5704 56.2804 35.1313 54.3784 39.0079 53.6078C42.8845 52.8372 46.9028 53.2327 50.5545 54.7443C54.2062 56.2558 57.3273 58.8156 59.5233 62.0998C61.7192 65.3841 62.8913 69.2453 62.8913 73.1952C62.8853 78.4901 60.7778 83.5663 57.0313 87.3104C53.2848 91.0544 48.2051 93.1604 42.9067 93.1664ZM42.9067 53.7496C39.0581 53.7496 35.296 54.8901 32.096 57.0268C28.8961 59.1635 26.402 62.2005 24.9292 65.7537C23.4565 69.3069 23.0711 73.2168 23.8219 76.9889C24.5727 80.761 26.426 84.2258 29.1473 86.9454C31.8687 89.6649 35.3359 91.5169 39.1105 92.2672C42.8851 93.0175 46.7976 92.6324 50.3532 91.1606C53.9088 89.6888 56.9478 87.1964 59.086 83.9986C61.2241 80.8008 62.3654 77.0412 62.3654 73.1952C62.3595 68.0397 60.3076 63.097 56.6596 59.4515C53.0117 55.806 48.0657 53.7554 42.9067 53.7496V53.7496Z" fill="#EEEEEE"/>
<path d="M221.19 8.55167H154.136V9.07722H221.19V8.55167Z" fill="#EEEEEE"/>
<path d="M299.551 147.299H106.805V147.824H299.551V147.299Z" fill="#EEEEEE"/>
<path d="M117.717 171.474H50.6641V172H117.717V171.474Z" fill="#EEEEEE"/>
<path d="M131.215 144.528H123.852V151.886H131.215V144.528Z" fill="#FF4C29"/>
<path d="M135.685 147.682H126.744V138.747H135.685V147.682ZM127.133 147.293H135.296V139.136H127.133V147.293Z" fill="#EEEEEE"/>
<path d="M216.675 5.78113H209.312V13.1389H216.675V5.78113Z" fill="#FF4C29"/>
<path d="M221.145 8.93447H212.205V0H221.145V8.93447ZM212.593 8.54602H220.756V0.388456H212.593V8.54602Z" fill="#EEEEEE"/>
<path d="M290.828 144.528H283.465V151.886H290.828V144.528Z" fill="#FF4C29"/>
<path d="M295.298 147.682H286.358V138.747H295.298V147.682ZM286.747 147.293H294.91V139.136H286.747V147.293Z" fill="#EEEEEE"/>
<path d="M277.988 60.9537H277.363V43.8306C277.363 42.5291 277.106 41.2404 276.608 40.0381C276.11 38.8357 275.379 37.7432 274.458 36.8229C273.537 35.9026 272.444 35.1726 271.241 34.6746C270.038 34.1766 268.748 33.9202 267.446 33.9202H231.144C229.842 33.9202 228.552 34.1766 227.349 34.6746C226.146 35.1726 225.053 35.9026 224.132 36.8229C223.211 37.7432 222.48 38.8357 221.982 40.0381C221.484 41.2404 221.227 42.5291 221.227 43.8306V137.769C221.227 139.071 221.484 140.359 221.982 141.562C222.48 142.764 223.211 143.857 224.132 144.777C225.053 145.697 226.146 146.427 227.349 146.925C228.552 147.423 229.842 147.679 231.144 147.679H267.446C268.748 147.679 270.038 147.423 271.241 146.925C272.444 146.427 273.537 145.697 274.458 144.777C275.379 143.857 276.11 142.764 276.608 141.562C277.106 140.359 277.363 139.071 277.363 137.769V73.1422H277.988V60.9537Z" fill="#EEEEEE"/>
<path d="M275.251 44.4131V138.215C275.251 140.177 274.471 142.06 273.083 143.448C271.694 144.837 269.81 145.617 267.846 145.617H231.369C229.405 145.617 227.521 144.837 226.133 143.448C224.744 142.06 223.964 140.177 223.964 138.215V44.4131C223.965 42.4506 224.745 40.5685 226.133 39.1808C227.522 37.7931 229.405 37.0134 231.369 37.0132H235.795C235.577 37.5471 235.494 38.1263 235.553 38.6998C235.612 39.2733 235.811 39.8235 236.133 40.302C236.455 40.7804 236.889 41.1724 237.399 41.4435C237.908 41.7145 238.476 41.8563 239.053 41.8562H259.85C260.427 41.8563 260.995 41.7145 261.504 41.4435C262.013 41.1724 262.448 40.7804 262.77 40.302C263.092 39.8235 263.291 39.2733 263.35 38.6998C263.409 38.1263 263.326 37.5471 263.108 37.0132H267.846C269.81 37.0134 271.693 37.7931 273.082 39.1808C274.471 40.5685 275.251 42.4506 275.251 44.4131V44.4131Z" fill="#FF4C29"/>
<path d="M255.041 98.862H244.175V102.08H255.041V98.862Z" fill="#EEEEEE"/>
<path d="M268.177 73.8079H231.038V75.1871H268.177V73.8079Z" fill="#EEEEEE"/>
<path d="M268.177 78.1751H231.038V79.5543H268.177V78.1751Z" fill="#EEEEEE"/>
<path d="M268.177 82.5424H231.038V83.9215H268.177V82.5424Z" fill="#EEEEEE"/>
<path d="M268.177 86.9096H231.038V88.2887H268.177V86.9096Z" fill="#EEEEEE"/>
<path d="M268.177 91.2768H231.038V92.6559H268.177V91.2768Z" fill="#EEEEEE"/>
<path d="M250.905 55.4933H244.465V61.9292H250.905V55.4933Z" fill="#F2F2F2"/>
<path d="M246.93 57.1026V64.9177H254.751V57.1026H246.93ZM254.411 64.5787H247.27V57.4416H254.411V64.5787Z" fill="#EEEEEE"/>
<path opacity="0.1" d="M275.251 128.197V138.215C275.251 140.177 274.471 142.06 273.083 143.448C271.694 144.837 269.81 145.617 267.846 145.617H231.369C229.405 145.617 227.521 144.837 226.133 143.448C224.744 142.06 223.964 140.177 223.964 138.215V87.7059L254.696 111.968L255.222 112.383L260.938 116.895L261.472 117.318L275.251 128.197Z" fill="#838383"/>
<path d="M246.452 142.577C252.823 142.577 257.988 137.416 257.988 131.05C257.988 124.683 252.823 119.522 246.452 119.522C240.081 119.522 234.917 124.683 234.917 131.05C234.917 137.416 240.081 142.577 246.452 142.577Z" fill="#F2F2F2"/>
<path d="M84.1906 172C79.6659 172 75.2429 170.659 71.4807 168.147C67.7186 165.635 64.7864 162.065 63.0549 157.887C61.3234 153.71 60.8703 149.113 61.7531 144.678C62.6358 140.243 64.8146 136.17 68.014 132.973C71.2134 129.775 75.2897 127.598 79.7275 126.716C84.1652 125.834 88.765 126.286 92.9452 128.017C97.1255 129.747 100.698 132.677 103.212 136.437C105.726 140.197 107.068 144.617 107.068 149.138C107.061 155.199 104.648 161.01 100.36 165.296C96.0707 169.582 90.2558 171.993 84.1906 172ZM84.1906 126.802C79.7699 126.802 75.4486 128.112 71.7729 130.566C68.0973 133.021 65.2325 136.509 63.5408 140.591C61.8491 144.672 61.4064 149.163 62.2689 153.496C63.1313 157.829 65.26 161.809 68.3859 164.932C71.5118 168.056 75.4944 170.183 79.8301 171.045C84.1658 171.907 88.6598 171.465 92.744 169.774C96.8281 168.084 100.319 165.221 102.775 161.548C105.231 157.874 106.542 153.556 106.542 149.138C106.535 143.216 104.178 137.539 99.9878 133.352C95.7976 129.164 90.1164 126.809 84.1906 126.802V126.802Z" fill="#EEEEEE"/>
<path d="M249.852 139.941C246.992 139.941 244.196 139.093 241.817 137.505C239.439 135.917 237.585 133.66 236.491 131.019C235.396 128.378 235.11 125.472 235.668 122.669C236.226 119.865 237.603 117.29 239.626 115.268C241.648 113.247 244.225 111.871 247.031 111.313C249.836 110.755 252.744 111.042 255.387 112.136C258.03 113.229 260.288 115.082 261.878 117.459C263.467 119.835 264.315 122.63 264.315 125.488C264.311 129.32 262.785 132.994 260.074 135.703C257.363 138.413 253.687 139.937 249.852 139.941V139.941ZM249.852 111.561C247.096 111.561 244.402 112.378 242.11 113.908C239.818 115.438 238.031 117.614 236.977 120.158C235.922 122.703 235.646 125.504 236.184 128.205C236.721 130.907 238.049 133.388 239.998 135.336C241.947 137.284 244.43 138.61 247.134 139.148C249.837 139.685 252.639 139.409 255.186 138.355C257.732 137.301 259.909 135.516 261.44 133.226C262.972 130.935 263.789 128.243 263.789 125.488C263.785 121.796 262.315 118.256 259.703 115.645C257.09 113.034 253.547 111.565 249.852 111.561Z" fill="#EEEEEE"/>
</g>
<defs>
<clipPath id="clip0_103_342">
<rect width="299.551" height="172" fill="white"/>
</clipPath>
</defs>
</svg>
